<?xml version="1.0" encoding="UTF-8" standalone="no"?>
<svg preserveAspectRatio="xMidYMin meet" viewBox="0 0 300 360" xmlns="http://www.w3.org/2000/svg">
<title>Pliosaurus</title>
 <metadata id="metadata2997">image/svg+xml</metadata>
  <g id="g2987">
  <path fill="#000000" d=" M 90.51 13.68 C 95.91 11.88 101.13 15.82 103.62 20.37 C 108.25 28.50 110.04 37.89 111.38 47.04 C 112.35 50.00 108.64 52.88 106.08 50.98 C 99.43 47.19 93.05 42.78 87.63 37.36 C 84.22 33.77 80.86 29.32 81.12 24.12 C 81.46 19.01 85.91 15.18 90.51 13.68 Z" id="path6"/>
  <path fill="#ffffff" d=" M 92.42 20.43 C 94.39 19.72 95.93 21.61 96.98 23.00 C 100.53 28.39 101.96 34.81 103.29 41.03 C 97.69 37.04 91.51 32.95 88.47 26.56 C 87.13 23.74 89.92 21.17 92.42 20.43 Z" id="path8"/>
  <path fill="#000000" d=" M 129.64 63.66 C 148.50 56.83 169.92 57.02 188.59 64.41 C 199.67 68.94 210.35 76.66 214.95 88.09 C 217.84 94.96 217.43 102.79 214.81 109.68 C 233.79 115.28 252.60 121.77 270.31 130.69 C 278.23 134.77 286.14 139.17 292.68 145.30 C 295.96 148.46 299.12 152.31 299.59 157.01 C 299.98 160.86 297.87 164.60 294.76 166.76 C 289.55 170.46 283.07 171.60 276.87 172.42 C 263.52 173.99 250.05 173.09 236.71 171.92 C 242.98 198.85 241.24 227.84 230.38 253.38 C 224.50 267.00 216.06 279.67 204.94 289.57 C 214.87 294.25 225.15 301.55 227.65 312.93 C 239.08 313.16 250.52 312.83 261.94 313.08 C 264.60 312.95 266.29 316.36 264.71 318.45 C 263.76 320.07 261.70 319.96 260.09 320.01 C 192.03 319.99 123.97 319.99 55.91 320.01 C 54.28 319.96 52.23 320.07 51.28 318.45 C 49.69 316.36 51.40 312.94 54.06 313.08 C 65.48 312.80 76.92 313.23 88.35 312.88 C 90.83 301.47 101.20 294.19 111.15 289.54 C 98.54 277.83 89.03 262.94 83.34 246.72 C 74.91 223.23 73.91 197.37 79.32 173.08 C 64.99 174.46 50.42 175.43 36.13 173.15 C 30.16 172.01 23.51 170.45 19.63 165.37 C 16.65 161.46 17.42 155.92 20.10 152.06 C 24.65 145.30 31.64 140.71 38.46 136.50 C 58.23 124.90 79.92 117.01 101.75 110.26 C 98.81 103.08 98.36 94.77 101.55 87.59 C 106.58 75.77 117.97 68.02 129.64 63.66 Z" id="path10"/>
  <path fill="#000000" d=" M 54.39 60.44 C 64.04 58.07 73.77 61.96 82.72 65.25 C 85.19 66.50 88.96 67.01 89.69 70.15 C 90.01 73.88 85.57 74.67 83.07 76.16 C 74.24 79.97 64.45 84.69 54.64 82.21 C 44.73 79.61 44.30 63.06 54.39 60.44 Z" id="path12"/>
  <path fill="#ffffff" d=" M 130.00 71.03 C 147.75 63.93 168.27 63.91 186.05 70.92 C 195.78 74.96 205.52 81.72 208.98 92.14 C 211.24 98.60 209.53 105.70 205.96 111.34 C 204.49 105.39 200.37 100.57 195.36 97.22 C 197.66 94.25 199.26 90.22 197.50 86.58 C 195.28 80.95 187.42 79.00 182.74 82.77 C 180.20 84.48 179.34 87.56 178.65 90.38 C 165.38 87.05 151.39 87.32 138.05 90.12 C 137.32 87.23 136.28 84.13 133.60 82.49 C 128.68 78.93 120.82 81.34 118.99 87.19 C 117.61 90.64 119.22 94.20 121.14 97.06 C 116.05 100.49 111.80 105.32 110.27 111.39 C 106.86 105.71 105.06 98.71 107.28 92.25 C 110.66 81.86 120.34 75.09 130.00 71.03 Z" id="path14"/>
  <path fill="#ffffff" d=" M 57.33 75.75 C 53.05 75.21 52.63 67.45 57.14 66.94 C 64.22 65.89 71.18 68.56 77.77 70.85 C 71.34 73.56 64.46 76.66 57.33 75.75 Z" id="path16"/>
  <path fill="#ffffff" d=" M 125.30 90.01 C 125.96 87.66 128.49 87.52 130.33 88.46 C 130.48 89.09 130.76 90.33 130.90 90.96 C 129.26 93.01 125.83 93.00 125.30 90.01 Z" id="path18"/>
  <path fill="#ffffff" d=" M 185.51 90.03 C 186.62 88.42 188.64 86.91 190.50 88.47 C 192.81 90.45 189.49 93.70 187.24 92.15 C 186.80 91.62 185.94 90.56 185.51 90.03 Z" id="path20"/>
  <path fill="#797979" d=" M 137.63 97.62 C 151.94 93.77 167.40 94.02 181.55 98.44 C 188.23 100.76 195.34 104.15 198.58 110.84 C 171.61 111.12 144.63 111.09 117.66 110.85 C 121.51 103.29 129.89 99.77 137.63 97.62 Z" id="path22"/>
  <path fill="#797979" d=" M 118.52 118.15 C 144.92 117.91 171.34 117.88 197.74 118.16 C 191.61 126.63 180.85 129.61 171.06 131.33 C 159.10 133.15 146.66 132.59 135.09 128.93 C 128.76 126.90 122.42 123.75 118.52 118.15 Z" id="path24"/>
  <path fill="#ffffff" d=" M 130.53 135.62 C 131.97 134.99 133.51 135.88 134.94 136.13 C 151.18 140.96 168.72 140.05 184.88 135.35 C 197.64 140.26 208.65 149.39 216.49 160.55 C 226.71 175.10 231.03 193.60 228.45 211.18 C 226.16 227.69 217.74 243.24 205.22 254.24 C 191.88 266.20 173.84 272.69 155.94 272.06 C 138.98 271.60 122.26 264.77 109.88 253.15 C 97.85 242.10 89.87 226.77 87.75 210.57 C 85.31 192.76 89.92 174.07 100.53 159.55 C 108.11 149.05 118.58 140.63 130.53 135.62 Z" id="path26"/>
  <path fill="#797979" d=" M 95.49 312.84 C 98.99 303.52 108.30 298.21 117.05 294.64 C 122.37 297.43 127.31 300.95 132.96 303.10 C 139.63 305.94 146.80 307.24 153.96 308.15 C 153.98 309.73 154.01 311.32 154.03 312.90 C 134.52 313.03 115.00 313.14 95.49 312.84 Z" id="path28"/>
  <path fill="#797979" d=" M 183.17 303.18 C 188.78 301.05 193.72 297.59 198.99 294.77 C 207.78 298.14 216.98 303.60 220.47 312.85 C 200.98 313.13 181.47 313.04 161.97 312.90 C 161.99 311.33 162.01 309.75 162.03 308.18 C 169.22 307.24 176.46 306.05 183.17 303.18 Z" id="path30"/>
	</g>
</svg>